

<svg
                      width="200"
                      height="200"
                      viewBox="0 0 129 129"
                      fill="none"
                      xmlns="http://www.w3.org/2000/svg"
                    >
                    
                      <path
                        d="M93.4456 18.1694C93.2457 18.0408 93.0386 17.9194 92.8316 17.7909C83.9061 12.3785 74.0166 9.90078 64.2985 10.0793L64.0272 0.475451C70.0823 0.311222 76.1302 1.01099 81.9853 2.56046C87.8404 4.10992 93.4385 6.49482 98.6224 9.63659L93.4456 18.1694Z"
                        fill="#0B6BCB"
                      />
                      <path
                        d="M65.1982 117.471L65.6052 128.296C54.2734 128.717 43.0273 126.089 33.0521 120.684C2.51982 104.133 -8.97621 65.3818 7.57523 34.8495L16.0937 39.4693C10.9955 49.0946 8.80336 60.3621 10.4885 71.9653C14.4371 99.1702 38.3289 118.556 65.1982 117.478"
                        fill="#0B6BCB"
                      />
                      <path
                        d="M64.37 107.246C40.2354 107.246 20.6065 87.6098 20.6065 63.4824C20.6065 39.355 40.2426 19.7189 64.37 19.7189V21.861C41.4208 21.861 22.7486 40.5331 22.7486 63.4824C22.7486 86.4316 41.4208 105.104 64.37 105.104C87.3192 105.104 105.991 86.4316 105.991 63.4824C105.991 44.0819 92.8245 27.4234 73.9738 22.9749L74.4665 20.8899C94.2882 25.574 108.133 43.0894 108.133 63.4824C108.133 87.6169 88.4974 107.246 64.37 107.246Z"
                        fill="#0B6BCB"
                      />
                      <path
                        d="M64.3698 120.092C33.152 120.092 7.76074 94.6932 7.76074 63.4825C7.76074 32.2718 33.1591 6.87341 64.3698 6.87341C95.5805 6.87341 120.979 32.2718 120.979 63.4825C120.979 94.6932 95.5805 120.092 64.3698 120.092ZM64.3698 14.7207C37.4862 14.7207 15.6152 36.5918 15.6152 63.4753C15.6152 90.3589 37.4862 112.23 64.3698 112.23C91.2534 112.23 113.124 90.3589 113.124 63.4753C113.124 36.5918 91.2534 14.7207 64.3698 14.7207Z"
                        fill="#0B6BCB"
                      />
                      <path
                        d="M68.6827 20.6471C68.6827 23.082 66.7048 25.0599 64.2699 25.0599C61.8351 25.0599 59.8572 23.082 59.8572 20.6471C59.8572 18.2123 61.8351 16.2344 64.2699 16.2344C66.7048 16.2344 68.6827 18.2123 68.6827 20.6471Z"
                        fill="#0B6BCB"
                      />
                      <path
                        d="M78.4937 64.0465C78.4937 72.008 72.0388 78.4629 64.0772 78.4629C56.1157 78.4629 49.6608 72.008 49.6608 64.0465C49.6608 56.0849 56.1157 49.63 64.0772 49.63C72.0388 49.63 78.4937 56.0849 78.4937 64.0465Z"
                        fill="#0B6BCB"
                      />
                      <path
                        d="M57.6507 60.7906V40.162L64.0628 33.9213L70.5034 40.1905V60.7906L64.0771 54.3571L57.6507 60.7906Z"
                        fill="#0B6BCB"
                      />
                      <path
                        d="M70.5034 67.3025V87.9383L64.0913 94.1718L57.6507 87.9097V67.3025L64.0771 73.7431L70.5034 67.3025Z"
                        fill="#0B6BCB"
                      />
                    </svg> 